<mxfile host="app.diagrams.net" modified="2020-12-22T13:55:55.597Z" agent="5.0 (Windows NT 10.0; Win64; x64) AppleWebKit/537.36 (KHTML, like Gecko) Chrome/87.0.4280.88 Safari/537.36 Edg/87.0.664.66" etag="irWh9ac-g_SI_3pqqlnk" version="14.1.1" type="github">
  <diagram id="09jijmmeEL49xiMSb2o-" name="Page-1">
    <mxGraphModel dx="1635" dy="913" grid="1" gridSize="10" guides="1" tooltips="1" connect="1" arrows="1" fold="1" page="1" pageScale="1" pageWidth="1169" pageHeight="827" math="0" shadow="0">
      <root>
        <mxCell id="0" />
        <mxCell id="1" parent="0" />
        <mxCell id="4nNfvsDVkFAxNqIKHBWq-24" style="edgeStyle=orthogonalEdgeStyle;rounded=0;orthogonalLoop=1;jettySize=auto;html=1;entryX=0.469;entryY=0.977;entryDx=0;entryDy=0;entryPerimeter=0;endArrow=none;endFill=0;dashed=1;" parent="1" source="DUrG6-pXYDQIY_fJw-mi-4" target="DUrG6-pXYDQIY_fJw-mi-10" edge="1">
          <mxGeometry relative="1" as="geometry" />
        </mxCell>
        <mxCell id="4nNfvsDVkFAxNqIKHBWq-25" style="edgeStyle=orthogonalEdgeStyle;rounded=0;orthogonalLoop=1;jettySize=auto;html=1;entryX=-0.004;entryY=0.688;entryDx=0;entryDy=0;entryPerimeter=0;dashed=1;endArrow=none;endFill=0;" parent="1" source="DUrG6-pXYDQIY_fJw-mi-4" target="4nNfvsDVkFAxNqIKHBWq-4" edge="1">
          <mxGeometry relative="1" as="geometry" />
        </mxCell>
        <mxCell id="fyWPdtsx0QaTo2cKDsmk-5" style="edgeStyle=orthogonalEdgeStyle;rounded=0;orthogonalLoop=1;jettySize=auto;html=1;exitX=0.75;exitY=0;exitDx=0;exitDy=0;entryX=0.239;entryY=1.008;entryDx=0;entryDy=0;entryPerimeter=0;endArrow=none;endFill=0;dashed=1;" parent="1" source="DUrG6-pXYDQIY_fJw-mi-4" target="DUrG6-pXYDQIY_fJw-mi-14" edge="1">
          <mxGeometry relative="1" as="geometry">
            <Array as="points">
              <mxPoint x="210" y="700" />
              <mxPoint x="270" y="700" />
              <mxPoint x="270" y="530" />
              <mxPoint x="478" y="530" />
            </Array>
          </mxGeometry>
        </mxCell>
        <mxCell id="DUrG6-pXYDQIY_fJw-mi-4" value="ReviewBean" style="swimlane;fontStyle=1;align=center;verticalAlign=top;childLayout=stackLayout;horizontal=1;startSize=26;horizontalStack=0;resizeParent=1;resizeParentMax=0;resizeLast=0;collapsible=1;marginBottom=0;" parent="1" vertex="1">
          <mxGeometry x="110" y="730" width="160" height="34" as="geometry" />
        </mxCell>
        <mxCell id="DUrG6-pXYDQIY_fJw-mi-5" value="" style="line;strokeWidth=1;fillColor=none;align=left;verticalAlign=middle;spacingTop=-1;spacingLeft=3;spacingRight=3;rotatable=0;labelPosition=right;points=[];portConstraint=eastwest;" parent="DUrG6-pXYDQIY_fJw-mi-4" vertex="1">
          <mxGeometry y="26" width="160" height="8" as="geometry" />
        </mxCell>
        <mxCell id="DUrG6-pXYDQIY_fJw-mi-6" value="Guest" style="shape=umlActor;verticalLabelPosition=bottom;verticalAlign=top;html=1;outlineConnect=0;" parent="1" vertex="1">
          <mxGeometry x="70" y="400" width="30" height="60" as="geometry" />
        </mxCell>
        <mxCell id="fyWPdtsx0QaTo2cKDsmk-14" style="edgeStyle=orthogonalEdgeStyle;rounded=0;orthogonalLoop=1;jettySize=auto;html=1;entryX=0.5;entryY=1;entryDx=0;entryDy=0;endArrow=none;endFill=0;dashed=1;" parent="1" source="DUrG6-pXYDQIY_fJw-mi-7" target="fyWPdtsx0QaTo2cKDsmk-7" edge="1">
          <mxGeometry relative="1" as="geometry" />
        </mxCell>
        <mxCell id="DUrG6-pXYDQIY_fJw-mi-7" value="&lt;&lt;boundary&gt;&gt;&#xa;ReviewHostBoundary" style="swimlane;fontStyle=1;align=center;verticalAlign=top;childLayout=stackLayout;horizontal=1;startSize=40;horizontalStack=0;resizeParent=1;resizeParentMax=0;resizeLast=0;collapsible=1;marginBottom=0;" parent="1" vertex="1">
          <mxGeometry x="150" y="400" width="160" height="100" as="geometry" />
        </mxCell>
        <mxCell id="DUrG6-pXYDQIY_fJw-mi-8" value="+ field: type" style="text;strokeColor=none;fillColor=none;align=left;verticalAlign=top;spacingLeft=4;spacingRight=4;overflow=hidden;rotatable=0;points=[[0,0.5],[1,0.5]];portConstraint=eastwest;" parent="DUrG6-pXYDQIY_fJw-mi-7" vertex="1">
          <mxGeometry y="40" width="160" height="26" as="geometry" />
        </mxCell>
        <mxCell id="DUrG6-pXYDQIY_fJw-mi-9" value="" style="line;strokeWidth=1;fillColor=none;align=left;verticalAlign=middle;spacingTop=-1;spacingLeft=3;spacingRight=3;rotatable=0;labelPosition=right;points=[];portConstraint=eastwest;" parent="DUrG6-pXYDQIY_fJw-mi-7" vertex="1">
          <mxGeometry y="66" width="160" height="8" as="geometry" />
        </mxCell>
        <mxCell id="DUrG6-pXYDQIY_fJw-mi-10" value="+ createHostReview()" style="text;strokeColor=none;fillColor=none;align=left;verticalAlign=top;spacingLeft=4;spacingRight=4;overflow=hidden;rotatable=0;points=[[0,0.5],[1,0.5]];portConstraint=eastwest;" parent="DUrG6-pXYDQIY_fJw-mi-7" vertex="1">
          <mxGeometry y="74" width="160" height="26" as="geometry" />
        </mxCell>
        <mxCell id="fyWPdtsx0QaTo2cKDsmk-13" style="edgeStyle=orthogonalEdgeStyle;rounded=0;orthogonalLoop=1;jettySize=auto;html=1;entryX=0.5;entryY=1;entryDx=0;entryDy=0;endArrow=none;endFill=0;" parent="1" source="DUrG6-pXYDQIY_fJw-mi-11" target="fyWPdtsx0QaTo2cKDsmk-9" edge="1">
          <mxGeometry relative="1" as="geometry" />
        </mxCell>
        <mxCell id="fyWPdtsx0QaTo2cKDsmk-16" style="edgeStyle=orthogonalEdgeStyle;rounded=0;orthogonalLoop=1;jettySize=auto;html=1;exitX=0.25;exitY=0;exitDx=0;exitDy=0;entryX=0.75;entryY=1;entryDx=0;entryDy=0;dashed=1;endArrow=none;endFill=0;" parent="1" source="DUrG6-pXYDQIY_fJw-mi-11" target="fyWPdtsx0QaTo2cKDsmk-7" edge="1">
          <mxGeometry relative="1" as="geometry">
            <Array as="points">
              <mxPoint x="480" y="350" />
              <mxPoint x="270" y="350" />
            </Array>
          </mxGeometry>
        </mxCell>
        <mxCell id="DUrG6-pXYDQIY_fJw-mi-11" value="&lt;&lt;control&gt;&gt;&#xa;ReviewHostController" style="swimlane;fontStyle=1;align=center;verticalAlign=top;childLayout=stackLayout;horizontal=1;startSize=40;horizontalStack=0;resizeParent=1;resizeParentMax=0;resizeLast=0;collapsible=1;marginBottom=0;" parent="1" vertex="1">
          <mxGeometry x="440" y="400" width="160" height="100" as="geometry" />
        </mxCell>
        <mxCell id="DUrG6-pXYDQIY_fJw-mi-12" value="+ field: type" style="text;strokeColor=none;fillColor=none;align=left;verticalAlign=top;spacingLeft=4;spacingRight=4;overflow=hidden;rotatable=0;points=[[0,0.5],[1,0.5]];portConstraint=eastwest;" parent="DUrG6-pXYDQIY_fJw-mi-11" vertex="1">
          <mxGeometry y="40" width="160" height="26" as="geometry" />
        </mxCell>
        <mxCell id="DUrG6-pXYDQIY_fJw-mi-13" value="" style="line;strokeWidth=1;fillColor=none;align=left;verticalAlign=middle;spacingTop=-1;spacingLeft=3;spacingRight=3;rotatable=0;labelPosition=right;points=[];portConstraint=eastwest;" parent="DUrG6-pXYDQIY_fJw-mi-11" vertex="1">
          <mxGeometry y="66" width="160" height="8" as="geometry" />
        </mxCell>
        <mxCell id="DUrG6-pXYDQIY_fJw-mi-14" value="+ method(type): type" style="text;strokeColor=none;fillColor=none;align=left;verticalAlign=top;spacingLeft=4;spacingRight=4;overflow=hidden;rotatable=0;points=[[0,0.5],[1,0.5]];portConstraint=eastwest;" parent="DUrG6-pXYDQIY_fJw-mi-11" vertex="1">
          <mxGeometry y="74" width="160" height="26" as="geometry" />
        </mxCell>
        <mxCell id="DUrG6-pXYDQIY_fJw-mi-25" style="edgeStyle=orthogonalEdgeStyle;rounded=0;orthogonalLoop=1;jettySize=auto;html=1;exitX=1;exitY=0.5;exitDx=0;exitDy=0;entryX=0;entryY=0.5;entryDx=0;entryDy=0;endArrow=none;endFill=0;" parent="1" source="DUrG6-pXYDQIY_fJw-mi-8" target="DUrG6-pXYDQIY_fJw-mi-12" edge="1">
          <mxGeometry relative="1" as="geometry" />
        </mxCell>
        <mxCell id="4nNfvsDVkFAxNqIKHBWq-7" style="edgeStyle=orthogonalEdgeStyle;rounded=0;orthogonalLoop=1;jettySize=auto;html=1;endArrow=none;endFill=0;entryX=0.501;entryY=1.038;entryDx=0;entryDy=0;entryPerimeter=0;" parent="1" source="4nNfvsDVkFAxNqIKHBWq-3" target="DUrG6-pXYDQIY_fJw-mi-14" edge="1">
          <mxGeometry relative="1" as="geometry">
            <mxPoint x="520" y="510" as="targetPoint" />
          </mxGeometry>
        </mxCell>
        <mxCell id="4nNfvsDVkFAxNqIKHBWq-3" value="&lt;&lt;entity&gt;&gt;&#xa;Review" style="swimlane;fontStyle=1;align=center;verticalAlign=top;childLayout=stackLayout;horizontal=1;startSize=40;horizontalStack=0;resizeParent=1;resizeParentMax=0;resizeLast=0;collapsible=1;marginBottom=0;" parent="1" vertex="1">
          <mxGeometry x="340" y="589" width="190" height="350" as="geometry" />
        </mxCell>
        <mxCell id="4nNfvsDVkFAxNqIKHBWq-4" value="- ID: Integer&#xa;- Title: String&#xa;- reviewer: Person&#xa;- reviewed: Person&#xa;- rating: Integer&#xa;- description: String&#xa;- tag: String" style="text;strokeColor=none;fillColor=none;align=left;verticalAlign=top;spacingLeft=4;spacingRight=4;overflow=hidden;rotatable=0;points=[[0,0.5],[1,0.5]];portConstraint=eastwest;" parent="4nNfvsDVkFAxNqIKHBWq-3" vertex="1">
          <mxGeometry y="40" width="190" height="120" as="geometry" />
        </mxCell>
        <mxCell id="4nNfvsDVkFAxNqIKHBWq-5" value="" style="line;strokeWidth=1;fillColor=none;align=left;verticalAlign=middle;spacingTop=-1;spacingLeft=3;spacingRight=3;rotatable=0;labelPosition=right;points=[];portConstraint=eastwest;" parent="4nNfvsDVkFAxNqIKHBWq-3" vertex="1">
          <mxGeometry y="160" width="190" height="8" as="geometry" />
        </mxCell>
        <mxCell id="4nNfvsDVkFAxNqIKHBWq-6" value="+ setID(Integer): void &#xa;+ getID(): Integer&#xa;+ getTitle(): String&#xa;+ setTitle(String): void&#xa;+ getReviewer(): Person&#xa;+ setReviewer(Person): void&#xa;+ getReviewed(): Person&#xa;+ setReviewed(Person): void&#xa;+ getDescription(): String&#xa;+ setDescription(String)&#xa;+ getTag(): String&#xa;+ setTag(String): void" style="text;strokeColor=none;fillColor=none;align=left;verticalAlign=top;spacingLeft=4;spacingRight=4;overflow=hidden;rotatable=0;points=[[0,0.5],[1,0.5]];portConstraint=eastwest;" parent="4nNfvsDVkFAxNqIKHBWq-3" vertex="1">
          <mxGeometry y="168" width="190" height="182" as="geometry" />
        </mxCell>
        <mxCell id="4nNfvsDVkFAxNqIKHBWq-8" value="&lt;&lt;control&gt;&gt;&#xa;TokenHandler" style="swimlane;fontStyle=1;align=center;verticalAlign=top;childLayout=stackLayout;horizontal=1;startSize=40;horizontalStack=0;resizeParent=1;resizeParentMax=0;resizeLast=0;collapsible=1;marginBottom=0;" parent="1" vertex="1">
          <mxGeometry x="650" y="416" width="280" height="74" as="geometry" />
        </mxCell>
        <mxCell id="4nNfvsDVkFAxNqIKHBWq-9" value="" style="line;strokeWidth=1;fillColor=none;align=left;verticalAlign=middle;spacingTop=-1;spacingLeft=3;spacingRight=3;rotatable=0;labelPosition=right;points=[];portConstraint=eastwest;" parent="4nNfvsDVkFAxNqIKHBWq-8" vertex="1">
          <mxGeometry y="40" width="280" height="8" as="geometry" />
        </mxCell>
        <mxCell id="4nNfvsDVkFAxNqIKHBWq-10" value="+ updateToken (n Integer, user Account): void&#xa;" style="text;strokeColor=none;fillColor=none;align=left;verticalAlign=top;spacingLeft=4;spacingRight=4;overflow=hidden;rotatable=0;points=[[0,0.5],[1,0.5]];portConstraint=eastwest;" parent="4nNfvsDVkFAxNqIKHBWq-8" vertex="1">
          <mxGeometry y="48" width="280" height="26" as="geometry" />
        </mxCell>
        <mxCell id="4nNfvsDVkFAxNqIKHBWq-22" style="edgeStyle=orthogonalEdgeStyle;rounded=0;orthogonalLoop=1;jettySize=auto;html=1;entryX=1;entryY=0.5;entryDx=0;entryDy=0;endArrow=none;endFill=0;" parent="1" source="4nNfvsDVkFAxNqIKHBWq-11" target="4nNfvsDVkFAxNqIKHBWq-8" edge="1">
          <mxGeometry relative="1" as="geometry" />
        </mxCell>
        <mxCell id="4nNfvsDVkFAxNqIKHBWq-11" value="&lt;&lt;entity&gt;&gt;&#xa;Account" style="swimlane;fontStyle=1;align=center;verticalAlign=top;childLayout=stackLayout;horizontal=1;startSize=40;horizontalStack=0;resizeParent=1;resizeParentMax=0;resizeLast=0;collapsible=1;marginBottom=0;" parent="1" vertex="1">
          <mxGeometry x="870" y="520" width="260" height="260" as="geometry" />
        </mxCell>
        <mxCell id="4nNfvsDVkFAxNqIKHBWq-12" value="- name: String&#xa;- surname: String&#xa;- CF: String&#xa;- email: String&#xa;- password: String&#xa;- dateBirth: DateTime&#xa;- cityBirth: String&#xa;- numToken: Integer&#xa;- listReservations: ArrayList&lt;Reservation&gt;" style="text;strokeColor=none;fillColor=none;align=left;verticalAlign=top;spacingLeft=4;spacingRight=4;overflow=hidden;rotatable=0;points=[[0,0.5],[1,0.5]];portConstraint=eastwest;" parent="4nNfvsDVkFAxNqIKHBWq-11" vertex="1">
          <mxGeometry y="40" width="260" height="140" as="geometry" />
        </mxCell>
        <mxCell id="4nNfvsDVkFAxNqIKHBWq-13" value="" style="line;strokeWidth=1;fillColor=none;align=left;verticalAlign=middle;spacingTop=-1;spacingLeft=3;spacingRight=3;rotatable=0;labelPosition=right;points=[];portConstraint=eastwest;" parent="4nNfvsDVkFAxNqIKHBWq-11" vertex="1">
          <mxGeometry y="180" width="260" height="8" as="geometry" />
        </mxCell>
        <mxCell id="4nNfvsDVkFAxNqIKHBWq-14" value="+ setNumToke(Integer): void&#xa;+ getNumToken(): Integer&#xa;+ setListReservations(Reservation): void&#xa;+ getListReservations: ArrayList&lt;Reservation&gt;&#xa;&#xa;" style="text;strokeColor=none;fillColor=none;align=left;verticalAlign=top;spacingLeft=4;spacingRight=4;overflow=hidden;rotatable=0;points=[[0,0.5],[1,0.5]];portConstraint=eastwest;" parent="4nNfvsDVkFAxNqIKHBWq-11" vertex="1">
          <mxGeometry y="188" width="260" height="72" as="geometry" />
        </mxCell>
        <mxCell id="4nNfvsDVkFAxNqIKHBWq-19" style="edgeStyle=orthogonalEdgeStyle;rounded=0;orthogonalLoop=1;jettySize=auto;html=1;entryX=0.5;entryY=1;entryDx=0;entryDy=0;entryPerimeter=0;endArrow=none;endFill=0;" parent="1" source="4nNfvsDVkFAxNqIKHBWq-15" target="4nNfvsDVkFAxNqIKHBWq-6" edge="1">
          <mxGeometry relative="1" as="geometry" />
        </mxCell>
        <mxCell id="4nNfvsDVkFAxNqIKHBWq-15" value="&lt;&lt;entity&gt;&gt;&#xa;Person" style="swimlane;fontStyle=1;align=center;verticalAlign=top;childLayout=stackLayout;horizontal=1;startSize=40;horizontalStack=0;resizeParent=1;resizeParentMax=0;resizeLast=0;collapsible=1;marginBottom=0;" parent="1" vertex="1">
          <mxGeometry x="335" y="1040" width="200" height="300" as="geometry" />
        </mxCell>
        <mxCell id="4nNfvsDVkFAxNqIKHBWq-16" value="- ID: Integer&#xa;- username: String&#xa;- studyGrade: String&#xa;- school: String&#xa;- account: Account&#xa;- hostRating: Float&#xa;- guestRating: Float&#xa;- reviews: ArrayList&lt;Review&gt;" style="text;strokeColor=none;fillColor=none;align=left;verticalAlign=top;spacingLeft=4;spacingRight=4;overflow=hidden;rotatable=0;points=[[0,0.5],[1,0.5]];portConstraint=eastwest;" parent="4nNfvsDVkFAxNqIKHBWq-15" vertex="1">
          <mxGeometry y="40" width="200" height="120" as="geometry" />
        </mxCell>
        <mxCell id="4nNfvsDVkFAxNqIKHBWq-17" value="" style="line;strokeWidth=1;fillColor=none;align=left;verticalAlign=middle;spacingTop=-1;spacingLeft=3;spacingRight=3;rotatable=0;labelPosition=right;points=[];portConstraint=eastwest;" parent="4nNfvsDVkFAxNqIKHBWq-15" vertex="1">
          <mxGeometry y="160" width="200" height="8" as="geometry" />
        </mxCell>
        <mxCell id="4nNfvsDVkFAxNqIKHBWq-18" value="+ setAccount(Account): void&#xa;+ getAccount(): Account&#xa;+ setHostRating(Float): void&#xa;+ getHostRating(): Float&#xa;+ setGuestRating(Float): void&#xa;+ getGuestRating(): Float&#xa;+ setReviews(Review): void&#xa;+ getReviews(): ArrayList&lt;Review&gt;" style="text;strokeColor=none;fillColor=none;align=left;verticalAlign=top;spacingLeft=4;spacingRight=4;overflow=hidden;rotatable=0;points=[[0,0.5],[1,0.5]];portConstraint=eastwest;" parent="4nNfvsDVkFAxNqIKHBWq-15" vertex="1">
          <mxGeometry y="168" width="200" height="132" as="geometry" />
        </mxCell>
        <mxCell id="4nNfvsDVkFAxNqIKHBWq-20" style="edgeStyle=orthogonalEdgeStyle;rounded=0;orthogonalLoop=1;jettySize=auto;html=1;entryX=0;entryY=0.5;entryDx=0;entryDy=0;endArrow=none;endFill=0;" parent="1" source="DUrG6-pXYDQIY_fJw-mi-12" target="4nNfvsDVkFAxNqIKHBWq-8" edge="1">
          <mxGeometry relative="1" as="geometry" />
        </mxCell>
        <mxCell id="fyWPdtsx0QaTo2cKDsmk-15" style="edgeStyle=orthogonalEdgeStyle;rounded=0;orthogonalLoop=1;jettySize=auto;html=1;exitX=1;exitY=0.5;exitDx=0;exitDy=0;dashed=1;endArrow=none;endFill=0;" parent="1" source="fyWPdtsx0QaTo2cKDsmk-7" target="fyWPdtsx0QaTo2cKDsmk-10" edge="1">
          <mxGeometry relative="1" as="geometry" />
        </mxCell>
        <mxCell id="fyWPdtsx0QaTo2cKDsmk-7" value="ReservationBean" style="swimlane;fontStyle=1;align=center;verticalAlign=top;childLayout=stackLayout;horizontal=1;startSize=26;horizontalStack=0;resizeParent=1;resizeParentMax=0;resizeLast=0;collapsible=1;marginBottom=0;" parent="1" vertex="1">
          <mxGeometry x="150" y="170" width="160" height="34" as="geometry" />
        </mxCell>
        <mxCell id="fyWPdtsx0QaTo2cKDsmk-8" value="" style="line;strokeWidth=1;fillColor=none;align=left;verticalAlign=middle;spacingTop=-1;spacingLeft=3;spacingRight=3;rotatable=0;labelPosition=right;points=[];portConstraint=eastwest;" parent="fyWPdtsx0QaTo2cKDsmk-7" vertex="1">
          <mxGeometry y="26" width="160" height="8" as="geometry" />
        </mxCell>
        <mxCell id="fyWPdtsx0QaTo2cKDsmk-9" value="&lt;&lt;entity&gt;&gt;&#xa;Reservation" style="swimlane;fontStyle=1;align=center;verticalAlign=top;childLayout=stackLayout;horizontal=1;startSize=40;horizontalStack=0;resizeParent=1;resizeParentMax=0;resizeLast=0;collapsible=1;marginBottom=0;" parent="1" vertex="1">
          <mxGeometry x="410" y="30" width="220" height="310" as="geometry" />
        </mxCell>
        <mxCell id="fyWPdtsx0QaTo2cKDsmk-10" value="- ID: Integer&#xa;- date: DateTime&#xa;- startTime: Time&#xa;- endTime: Time&#xa;- reservingUser: Account&#xa;- room: Room&#xa;- roomOwner: Person&#xa;- partecipants: ArrayList&lt;Person&gt;&#xa;- isGroup: Boolean" style="text;strokeColor=none;fillColor=none;align=left;verticalAlign=top;spacingLeft=4;spacingRight=4;overflow=hidden;rotatable=0;points=[[0,0.5],[1,0.5]];portConstraint=eastwest;" parent="fyWPdtsx0QaTo2cKDsmk-9" vertex="1">
          <mxGeometry y="40" width="220" height="130" as="geometry" />
        </mxCell>
        <mxCell id="fyWPdtsx0QaTo2cKDsmk-11" value="" style="line;strokeWidth=1;fillColor=none;align=left;verticalAlign=middle;spacingTop=-1;spacingLeft=3;spacingRight=3;rotatable=0;labelPosition=right;points=[];portConstraint=eastwest;" parent="fyWPdtsx0QaTo2cKDsmk-9" vertex="1">
          <mxGeometry y="170" width="220" height="8" as="geometry" />
        </mxCell>
        <mxCell id="fyWPdtsx0QaTo2cKDsmk-12" value="+ setReservingUser(Account): void&#xa;+ getReservingUser(): Account&#xa;+ setRoom(Room): void&#xa;+ getRoom(): Room&#xa;+ setPartecipants(Person): void&#xa;+ getPartecipants(): ArrayList&lt;Person&gt;&#xa;+ setIsGroup(Boolean): void&#xa;+getIsGroup(): Boolean" style="text;strokeColor=none;fillColor=none;align=left;verticalAlign=top;spacingLeft=4;spacingRight=4;overflow=hidden;rotatable=0;points=[[0,0.5],[1,0.5]];portConstraint=eastwest;" parent="fyWPdtsx0QaTo2cKDsmk-9" vertex="1">
          <mxGeometry y="178" width="220" height="132" as="geometry" />
        </mxCell>
      </root>
    </mxGraphModel>
  </diagram>
</mxfile>
